# File created by Blade
# Date/Time:  Tue Apr 07 20:45:22 2015
# Frame Rate: 120.000 fps
#------------------------------------------------------
:FULLY-SPECIFIED
:DEGREES
536
root 1.491675 34.339486 -4.569351 16.439917 -22.000555 -48.938055
Spine 3.290325 25.121872 29.790863
Head 9.824741 -3.363767 21.096110
LeftShoulder -20.451372 25.357141 33.370351
LeftArm 80.026717 -76.742167 -63.078156
LeftForeArm 15.544908 -0.000000 16.018780
LeftHand 7.231380 -0.000000 12.740884
LeftHandThumb1 -26.253704 0.000000 33.147579
RightShoulder -9.555368 31.216116 -32.801955
RightArm 70.574969 78.298850 108.336595
RightForeArm 43.860534 -0.000000 59.120266
RightHand 1.208295 -0.000000 29.257444
RightHandThumb1 -24.326973 -0.000000 -32.862282
LeftUpLeg -3.322427 -2.478543 40.396251
LeftLeg 22.877581 -0.000000 -0.000000
LeftFoot -20.100973 31.752115 -21.824184
LeftToeBase -11.555179 -0.000000 0.000000
RightUpLeg -135.934334 -55.103252 18.945788
RightLeg -11.096517 -0.000000 0.000000
RightFoot 39.206175 -23.620392 12.016547
RightToeBase 11.487748 -0.000000 -0.000000
537
root 1.492079 34.335578 -4.555164 16.331835 -22.000855 -48.841179
Spine 3.261637 25.054173 29.696842
Head 10.036082 -3.393382 21.083145
LeftShoulder -20.411980 25.415974 33.385037
LeftArm 79.534357 -76.651968 -62.592430
LeftForeArm 15.467103 -0.000000 15.591096
LeftHand 7.089915 0.000000 12.705835
LeftHandThumb1 -26.253704 0.000000 33.147579
RightShoulder -9.583234 31.272631 -32.829446
RightArm 70.426998 78.278331 108.249807
RightForeArm 43.862914 -0.000000 59.171683
RightHand 1.205568 -0.000000 29.391336
RightHandThumb1 -24.326973 -0.000000 -32.862282
LeftUpLeg -3.270163 -2.439188 40.332931
LeftLeg 22.930823 -0.000000 -0.000000
LeftFoot -20.313292 31.412697 -22.115069
LeftToeBase -11.481004 -0.000000 0.000000
RightUpLeg -135.996418 -55.135146 18.967932
RightLeg -11.187499 -0.000000 0.000000
RightFoot 39.118648 -23.730929 12.235400
RightToeBase 11.772286 -0.000000 -0.000000
538
root 1.493615 34.327625 -4.543268 16.235169 -22.006792 -48.740891
Spine 3.229486 24.998526 29.597490
Head 10.234531 -3.412257 21.051175
LeftShoulder -20.381237 25.364064 33.390157
LeftArm 78.792383 -76.559591 -61.754842
LeftForeArm 15.356230 0.000000 15.156323
LeftHand 7.120926 -0.000000 12.235720
LeftHandThumb1 -26.253704 0.000000 33.147579
RightShoulder -9.594864 31.321163 -32.845112
RightArm 70.103088 78.257730 107.972047
RightForeArm 43.941979 -0.000000 59.231809
RightHand 1.155773 -0.000000 29.423321
RightHandThumb1 -24.326973 -0.000000 -32.862282
LeftUpLeg -3.213469 -2.423072 40.249234
LeftLeg 22.951785 -0.000000 -0.000000
LeftFoot -20.442547 31.171717 -22.258893
LeftToeBase -11.856068 -0.000000 0.000000
RightUpLeg -136.054443 -55.172123 18.957507
RightLeg -11.237573 -0.000000 0.000000
RightFoot 39.085193 -23.627886 12.224728
RightToeBase 11.683198 -0.000000 -0.000000
539
root 1.495569 34.317815 -4.534639 16.174631 -22.004107 -48.690842
Spine 3.192939 24.962750 29.560701
Head 10.414574 -3.433469 20.978473
LeftShoulder -20.356759 25.392339 33.365261
LeftArm 78.380074 -76.519742 -61.209495
LeftForeArm 15.192080 0.000000 14.716942
LeftHand 7.071264 -0.000000 11.886118
LeftHandThumb1 -26.253704 0.000000 33.147579
RightShoulder -9.578008 31.331361 -32.862042
RightArm 69.957510 78.251116 107.855092
RightForeArm 44.013317 -0.000000 59.300764
RightHand 1.147994 -0.000000 29.481569
RightHandThumb1 -24.326973 -0.000000 -32.862282
LeftUpLeg -3.165887 -2.345085 40.211689
LeftLeg 22.945246 -0.000000 -0.000000
LeftFoot -20.534159 31.028135 -22.258530
LeftToeBase -11.805887 -0.000000 0.000000
RightUpLeg -136.087307 -55.198659 18.977272
RightLeg -11.335387 -0.000000 0.000000
RightFoot 39.087892 -23.660099 12.260623
RightToeBase 11.666577 -0.000000 -0.000000
540
root 1.499114 34.306068 -4.527366 16.105799 -21.989990 -48.637455
Spine 3.160637 24.896193 29.529670
Head 10.640334 -3.429758 20.861370
LeftShoulder -20.342997 25.407264 33.354968
LeftArm 78.024203 -76.469969 -60.728066
LeftForeArm 15.000984 -0.000000 14.334124
LeftHand 7.117616 -0.000000 11.774706
LeftHandThumb1 -26.253704 0.000000 33.147579
RightShoulder -9.513771 31.308878 -32.850364
RightArm 69.783004 78.242665 107.689513
RightForeArm 44.181553 -0.000000 59.366996
RightHand 1.088260 -0.000000 29.606498
RightHandThumb1 -24.326973 -0.000000 -32.862282
LeftUpLeg -3.135870 -2.257236 40.179281
LeftLeg 22.962076 -0.000000 -0.000000
LeftFoot -20.638675 30.822739 -22.297530
LeftToeBase -11.834566 -0.000000 0.000000
RightUpLeg -136.155377 -55.195810 19.040684
RightLeg -11.432227 -0.000000 0.000000
RightFoot 39.089858 -23.678001 12.295631
RightToeBase 11.720199 -0.000000 -0.000000
541
root 1.503046 34.293487 -4.522699 16.045538 -21.971806 -48.615572
Spine 3.153517 24.843041 29.537814
Head 10.765031 -3.455685 20.835518
LeftShoulder -20.355595 25.404799 33.338171
LeftArm 78.170139 -76.435875 -60.753698
LeftForeArm 14.929697 0.000000 14.036286
LeftHand 7.043647 0.000000 11.608922
LeftHandThumb1 -26.253704 0.000000 33.147579
RightShoulder -9.451663 31.309902 -32.827815
RightArm 69.633440 78.240089 107.518091
RightForeArm 44.344937 0.000000 59.421645
RightHand 1.131076 -0.000000 29.437799
RightHandThumb1 -24.326973 -0.000000 -32.862282
LeftUpLeg -3.123127 -2.115479 40.176862
LeftLeg 23.003735 -0.000000 -0.000000
LeftFoot -20.701765 30.664303 -22.247526
LeftToeBase -11.880292 -0.000000 0.000000
RightUpLeg -136.191730 -55.186205 19.102122
RightLeg -11.514529 -0.000000 0.000000
RightFoot 39.037973 -23.737003 12.326761
RightToeBase 11.888751 -0.000000 -0.000000
542
root 1.507451 34.280379 -4.521981 15.995701 -21.939435 -48.614608
Spine 3.155336 24.784814 29.571572
Head 10.874587 -3.480896 20.774880
LeftShoulder -20.376115 25.432393 33.321804
LeftArm 78.305650 -76.424956 -60.764064
LeftForeArm 14.810903 -0.000000 13.773236
LeftHand 7.088477 -0.000000 11.688801
LeftHandThumb1 -26.253704 0.000000 33.147579
RightShoulder -9.420392 31.298862 -32.851899
RightArm 69.295706 78.222664 107.199715
RightForeArm 44.481433 -0.000000 59.434236
RightHand 1.182446 0.000000 29.333425
RightHandThumb1 -24.326973 -0.000000 -32.862282
LeftUpLeg -3.153300 -1.961237 40.198612
LeftLeg 23.091489 -0.000000 -0.000000
LeftFoot -20.755749 30.561921 -22.130915
LeftToeBase -11.480447 -0.000000 0.000000
RightUpLeg -136.235958 -55.159888 19.198552
RightLeg -11.587170 -0.000000 0.000000
RightFoot 39.032465 -23.794571 12.360962
RightToeBase 11.809184 -0.000000 -0.000000
543
root 1.512351 34.267421 -4.524146 15.953802 -21.888014 -48.637965
Spine 3.164378 24.720718 29.631262
Head 10.953598 -3.518969 20.723500
LeftShoulder -20.393538 25.440309 33.331280
LeftArm 78.607640 -76.424125 -60.952605
LeftForeArm 14.778898 -0.000000 13.549888
LeftHand 7.154840 -0.000000 11.936520
LeftHandThumb1 -26.253704 0.000000 33.147579
RightShoulder -9.375652 31.271285 -32.855873
RightArm 69.402194 78.211511 107.304051
RightForeArm 44.517089 -0.000000 59.429267
RightHand 1.132948 -0.000000 29.349846
RightHandThumb1 -24.326973 -0.000000 -32.862282
LeftUpLeg -3.219933 -1.750677 40.258197
LeftLeg 23.220331 -0.000000 -0.000000
LeftFoot -20.832505 30.379960 -22.104672
LeftToeBase -11.315218 -0.000000 0.000000
RightUpLeg -136.259092 -55.142873 19.298825
RightLeg -11.638820 -0.000000 0.000000
RightFoot 39.051557 -23.846807 12.383307
RightToeBase 11.771097 -0.000000 -0.000000
544
root 1.516512 34.256864 -4.532008 15.939513 -21.835218 -48.703408
Spine 3.183486 24.697020 29.719525
Head 10.979003 -3.601771 20.706026
LeftShoulder -20.419819 25.457845 33.325386
LeftArm 79.232071 -76.463988 -61.445477
LeftForeArm 14.713942 0.000000 13.420152
LeftHand 7.175235 -0.000000 11.864619
LeftHandThumb1 -26.253704 0.000000 33.147579
RightShoulder -9.377380 31.267420 -32.867596
RightArm 69.635059 78.179775 107.534305
RightForeArm 44.522649 -0.000000 59.371949
RightHand 1.158056 0.000000 29.332266
RightHandThumb1 -24.326973 -0.000000 -32.862282
LeftUpLeg -3.312004 -1.497475 40.366854
LeftLeg 23.376288 -0.000000 -0.000000
LeftFoot -20.895069 30.183647 -22.074611
LeftToeBase -11.360683 -0.000000 0.000000
RightUpLeg -136.247781 -55.104849 19.404514
RightLeg -11.715850 -0.000000 0.000000
RightFoot 39.092931 -24.013017 12.455351
RightToeBase 11.865604 -0.000000 -0.000000
545
root 1.522187 34.246402 -4.542009 15.902304 -21.754219 -48.734972
Spine 3.210969 24.643372 29.774178
Head 10.964229 -3.668434 20.716910
LeftShoulder -20.494369 25.440477 33.296739
LeftArm 79.864613 -76.486650 -61.881819
LeftForeArm 14.809248 0.000000 13.320520
LeftHand 7.205659 -0.000000 11.811980
LeftHandThumb1 -26.253704 0.000000 33.147579
RightShoulder -9.375171 31.317808 -32.861663
RightArm 69.799379 78.174639 107.681444
RightForeArm 44.545236 -0.000000 59.302682
RightHand 1.148557 -0.000000 29.347867
RightHandThumb1 -24.326973 -0.000000 -32.862282
LeftUpLeg -3.437962 -1.291712 40.455673
LeftLeg 23.552683 -0.000000 -0.000000
LeftFoot -20.946920 29.962374 -22.058717
LeftToeBase -11.367665 -0.000000 0.000000
RightUpLeg -136.239414 -55.105505 19.479568
RightLeg -11.740963 -0.000000 0.000000
RightFoot 39.121636 -24.066569 12.531930
RightToeBase 12.018722 -0.000000 -0.000000
